<?xml version="1.0" encoding="utf-8" standalone="no"?>
<!DOCTYPE svg PUBLIC "-//W3C//DTD SVG 1.1//EN"
  "http://www.w3.org/Graphics/SVG/1.1/DTD/svg11.dtd">
<svg xmlns:xlink="http://www.w3.org/1999/xlink" width="800.585938pt" height="624.116381pt" viewBox="0 0 800.585938 624.116381" xmlns="http://www.w3.org/2000/svg" version="1.1">
 <metadata>
  <rdf:RDF xmlns:dc="http://purl.org/dc/elements/1.1/" xmlns:cc="http://creativecommons.org/ns#" xmlns:rdf="http://www.w3.org/1999/02/22-rdf-syntax-ns#">
   <cc:Work>
    <dc:type rdf:resource="http://purl.org/dc/dcmitype/StillImage"/>
    <dc:date>2026-09-16T21:09:23.639763</dc:date>
    <dc:format>image/svg+xml</dc:format>
    <dc:creator>
     <cc:Agent>
      <dc:title>Matplotlib v3.11.2, https://matplotlib.org/</dc:title>
     </cc:Agent>
    </dc:creator>
   </cc:Work>
  </rdf:RDF>
 </metadata>
 <defs>
  <style type="text/css">*{stroke-linejoin: round; stroke-linecap: butt}</style>
 </defs>
 <g id="figure_1">
  <g id="patch_1">
   <path d="M 0 624.116381 
L 800.585938 624.116381 
L 800.585938 0 
L 0 0 
z
" style="fill: #ffffff"/>
  </g>
  <g id="axes_1">
   <g id="patch_2">
    <path d="M 179.585938 511.132925 
L 793.385938 511.132925 
L 793.385938 44.328125 
L 179.585938 44.328125 
z
" style="fill: #ffffff"/>
   </g>
   <g id="PathCollection_1">
    <defs>
     <path id="mcdb3aeffc2" d="M 0 2.061553 
C 0.54673 2.061553 1.071141 1.844335 1.457738 1.457738 
C 1.844335 1.071141 2.061553 0.54673 2.061553 0 
C 2.061553 -0.54673 1.844335 -1.071141 1.457738 -1.457738 
C 1.071141 -1.844335 0.54673 -2.061553 0 -2.061553 
C -0.54673 -2.061553 -1.071141 -1.844335 -1.457738 -1.457738 
C -1.844335 -1.071141 -2.061553 -0.54673 -2.061553 0 
C -2.061553 0.54673 -1.844335 1.071141 -1.457738 1.457738 
C -1.071141 1.844335 -0.54673 2.061553 0 2.061553 
z
" style="stroke: #1f77b4; stroke-opacity: 0.45"/>
    </defs>
    <g clip-path="url(#pf562d8ea06)">
     <use xlink:href="#mcdb3aeffc2" x="561.71678" y="65.546525" style="fill: #1f77b4; fill-opacity: 0.45; stroke: #1f77b4; stroke-opacity: 0.45"/>
     <use xlink:href="#mcdb3aeffc2" x="435.205765" y="65.546525" style="fill: #1f77b4; fill-opacity: 0.45; stroke: #1f77b4; stroke-opacity: 0.45"/>
     <use xlink:href="#mcdb3aeffc2" x="561.71678" y="65.546525" style="fill: #1f77b4; fill-opacity: 0.45; stroke: #1f77b4; stroke-opacity: 0.45"/>
    </g>
   </g>
   <g id="PathCollection_2">
    <defs>
     <path id="m31e76ceea9" d="M 0 2.061553 
C 0.54673 2.061553 1.071141 1.844335 1.457738 1.457738 
C 1.844335 1.071141 2.061553 0.54673 2.061553 0 
C 2.061553 -0.54673 1.844335 -1.071141 1.457738 -1.457738 
C 1.071141 -1.844335 0.54673 -2.061553 0 -2.061553 
C -0.54673 -2.061553 -1.071141 -1.844335 -1.457738 -1.457738 
C -1.844335 -1.071141 -2.061553 -0.54673 -2.061553 0 
C -2.061553 0.54673 -1.844335 1.071141 -1.457738 1.457738 
C -1.071141 1.844335 -0.54673 2.061553 0 2.061553 
z
" style="stroke: #aec7e8; stroke-opacity: 0.45"/>
    </defs>
    <g clip-path="url(#pf562d8ea06)">
     <use xlink:href="#m31e76ceea9" x="561.71678" y="107.983325" style="fill: #aec7e8; fill-opacity: 0.45; stroke: #aec7e8; stroke-opacity: 0.45"/>
     <use xlink:href="#m31e76ceea9" x="443.639833" y="107.983325" style="fill: #aec7e8; fill-opacity: 0.45; stroke: #aec7e8; stroke-opacity: 0.45"/>
     <use xlink:href="#m31e76ceea9" x="274.958479" y="107.983325" style="fill: #aec7e8; fill-opacity: 0.45; stroke: #aec7e8; stroke-opacity: 0.45"/>
    </g>
   </g>
   <g id="PathCollection_3">
    <defs>
     <path id="mce52f7b144" d="M 0 2.061553 
C 0.54673 2.061553 1.071141 1.844335 1.457738 1.457738 
C 1.844335 1.071141 2.061553 0.54673 2.061553 0 
C 2.061553 -0.54673 1.844335 -1.071141 1.457738 -1.457738 
C 1.071141 -1.844335 0.54673 -2.061553 0 -2.061553 
C -0.54673 -2.061553 -1.071141 -1.844335 -1.457738 -1.457738 
C -1.844335 -1.071141 -2.061553 -0.54673 -2.061553 0 
C -2.061553 0.54673 -1.844335 1.071141 -1.457738 1.457738 
C -1.071141 1.844335 -0.54673 2.061553 0 2.061553 
z
" style="stroke: #ff7f0e; stroke-opacity: 0.45"/>
    </defs>
    <g clip-path="url(#pf562d8ea06)">
     <use xlink:href="#mce52f7b144" x="511.112374" y="150.420125" style="fill: #ff7f0e; fill-opacity: 0.45; stroke: #ff7f0e; stroke-opacity: 0.45"/>
     <use xlink:href="#mce52f7b144" x="325.562885" y="150.420125" style="fill: #ff7f0e; fill-opacity: 0.45; stroke: #ff7f0e; stroke-opacity: 0.45"/>
     <use xlink:href="#mce52f7b144" x="452.0739" y="150.420125" style="fill: #ff7f0e; fill-opacity: 0.45; stroke: #ff7f0e; stroke-opacity: 0.45"/>
    </g>
   </g>
   <g id="PathCollection_4">
    <defs>
     <path id="m61ab39c931" d="M 0 2.061553 
C 0.54673 2.061553 1.071141 1.844335 1.457738 1.457738 
C 1.844335 1.071141 2.061553 0.54673 2.061553 0 
C 2.061553 -0.54673 1.844335 -1.071141 1.457738 -1.457738 
C 1.071141 -1.844335 0.54673 -2.061553 0 -2.061553 
C -0.54673 -2.061553 -1.071141 -1.844335 -1.457738 -1.457738 
C -1.844335 -1.071141 -2.061553 -0.54673 -2.061553 0 
C -2.061553 0.54673 -1.844335 1.071141 -1.457738 1.457738 
C -1.071141 1.844335 -0.54673 2.061553 0 2.061553 
z
" style="stroke: #ffbb78; stroke-opacity: 0.45"/>
    </defs>
    <g clip-path="url(#pf562d8ea06)">
     <use xlink:href="#m61ab39c931" x="730.398134" y="192.856925" style="fill: #ffbb78; fill-opacity: 0.45; stroke: #ffbb78; stroke-opacity: 0.45"/>
     <use xlink:href="#m61ab39c931" x="561.71678" y="192.856925" style="fill: #ffbb78; fill-opacity: 0.45; stroke: #ffbb78; stroke-opacity: 0.45"/>
     <use xlink:href="#m61ab39c931" x="688.227795" y="192.856925" style="fill: #ffbb78; fill-opacity: 0.45; stroke: #ffbb78; stroke-opacity: 0.45"/>
    </g>
   </g>
   <g id="PathCollection_5">
    <defs>
     <path id="mbc8c5f5239" d="M 0 2.061553 
C 0.54673 2.061553 1.071141 1.844335 1.457738 1.457738 
C 1.844335 1.071141 2.061553 0.54673 2.061553 0 
C 2.061553 -0.54673 1.844335 -1.071141 1.457738 -1.457738 
C 1.071141 -1.844335 0.54673 -2.061553 0 -2.061553 
C -0.54673 -2.061553 -1.071141 -1.844335 -1.457738 -1.457738 
C -1.844335 -1.071141 -2.061553 -0.54673 -2.061553 0 
C -2.061553 0.54673 -1.844335 1.071141 -1.457738 1.457738 
C -1.071141 1.844335 -0.54673 2.061553 0 2.061553 
z
" style="stroke: #2ca02c; stroke-opacity: 0.45"/>
    </defs>
    <g clip-path="url(#pf562d8ea06)">
     <use xlink:href="#mbc8c5f5239" x="612.321186" y="235.293725" style="fill: #2ca02c; fill-opacity: 0.45; stroke: #2ca02c; stroke-opacity: 0.45"/>
     <use xlink:href="#mbc8c5f5239" x="688.227795" y="235.293725" style="fill: #2ca02c; fill-opacity: 0.45; stroke: #2ca02c; stroke-opacity: 0.45"/>
     <use xlink:href="#mbc8c5f5239" x="511.112374" y="235.293725" style="fill: #2ca02c; fill-opacity: 0.45; stroke: #2ca02c; stroke-opacity: 0.45"/>
    </g>
   </g>
   <g id="PathCollection_6">
    <defs>
     <path id="m83a6abbaf3" d="M 0 2.061553 
C 0.54673 2.061553 1.071141 1.844335 1.457738 1.457738 
C 1.844335 1.071141 2.061553 0.54673 2.061553 0 
C 2.061553 -0.54673 1.844335 -1.071141 1.457738 -1.457738 
C 1.071141 -1.844335 0.54673 -2.061553 0 -2.061553 
C -0.54673 -2.061553 -1.071141 -1.844335 -1.457738 -1.457738 
C -1.844335 -1.071141 -2.061553 -0.54673 -2.061553 0 
C -2.061553 0.54673 -1.844335 1.071141 -1.457738 1.457738 
C -1.071141 1.844335 -0.54673 2.061553 0 2.061553 
z
" style="stroke: #98df8a; stroke-opacity: 0.45"/>
    </defs>
    <g clip-path="url(#pf562d8ea06)">
     <use xlink:href="#m83a6abbaf3" x="646.057457" y="277.730525" style="fill: #98df8a; fill-opacity: 0.45; stroke: #98df8a; stroke-opacity: 0.45"/>
     <use xlink:href="#m83a6abbaf3" x="570.150848" y="277.730525" style="fill: #98df8a; fill-opacity: 0.45; stroke: #98df8a; stroke-opacity: 0.45"/>
     <use xlink:href="#m83a6abbaf3" x="477.376103" y="277.730525" style="fill: #98df8a; fill-opacity: 0.45; stroke: #98df8a; stroke-opacity: 0.45"/>
    </g>
   </g>
   <g id="PathCollection_7">
    <defs>
     <path id="mc14e26316c" d="M 0 2.061553 
C 0.54673 2.061553 1.071141 1.844335 1.457738 1.457738 
C 1.844335 1.071141 2.061553 0.54673 2.061553 0 
C 2.061553 -0.54673 1.844335 -1.071141 1.457738 -1.457738 
C 1.071141 -1.844335 0.54673 -2.061553 0 -2.061553 
C -0.54673 -2.061553 -1.071141 -1.844335 -1.457738 -1.457738 
C -1.844335 -1.071141 -2.061553 -0.54673 -2.061553 0 
C -2.061553 0.54673 -1.844335 1.071141 -1.457738 1.457738 
C -1.071141 1.844335 -0.54673 2.061553 0 2.061553 
z
" style="stroke: #d62728; stroke-opacity: 0.45"/>
    </defs>
    <g clip-path="url(#pf562d8ea06)">
     <use xlink:href="#mc14e26316c" x="755.700337" y="320.167325" style="fill: #d62728; fill-opacity: 0.45; stroke: #d62728; stroke-opacity: 0.45"/>
     <use xlink:href="#mc14e26316c" x="764.134404" y="320.167325" style="fill: #d62728; fill-opacity: 0.45; stroke: #d62728; stroke-opacity: 0.45"/>
     <use xlink:href="#mc14e26316c" x="721.964066" y="320.167325" style="fill: #d62728; fill-opacity: 0.45; stroke: #d62728; stroke-opacity: 0.45"/>
    </g>
   </g>
   <g id="PathCollection_8">
    <defs>
     <path id="mdeda159af8" d="M 0 2.061553 
C 0.54673 2.061553 1.071141 1.844335 1.457738 1.457738 
C 1.844335 1.071141 2.061553 0.54673 2.061553 0 
C 2.061553 -0.54673 1.844335 -1.071141 1.457738 -1.457738 
C 1.071141 -1.844335 0.54673 -2.061553 0 -2.061553 
C -0.54673 -2.061553 -1.071141 -1.844335 -1.457738 -1.457738 
C -1.844335 -1.071141 -2.061553 -0.54673 -2.061553 0 
C -2.061553 0.54673 -1.844335 1.071141 -1.457738 1.457738 
C -1.071141 1.844335 -0.54673 2.061553 0 2.061553 
z
" style="stroke: #ff9896; stroke-opacity: 0.45"/>
    </defs>
    <g clip-path="url(#pf562d8ea06)">
     <use xlink:href="#mdeda159af8" x="207.485938" y="362.604125" style="fill: #ff9896; fill-opacity: 0.45; stroke: #ff9896; stroke-opacity: 0.45"/>
     <use xlink:href="#mdeda159af8" x="207.485938" y="362.604125" style="fill: #ff9896; fill-opacity: 0.45; stroke: #ff9896; stroke-opacity: 0.45"/>
     <use xlink:href="#mdeda159af8" x="207.485938" y="362.604125" style="fill: #ff9896; fill-opacity: 0.45; stroke: #ff9896; stroke-opacity: 0.45"/>
    </g>
   </g>
   <g id="PathCollection_9">
    <defs>
     <path id="m41901bf724" d="M 0 2.061553 
C 0.54673 2.061553 1.071141 1.844335 1.457738 1.457738 
C 1.844335 1.071141 2.061553 0.54673 2.061553 0 
C 2.061553 -0.54673 1.844335 -1.071141 1.457738 -1.457738 
C 1.071141 -1.844335 0.54673 -2.061553 0 -2.061553 
C -0.54673 -2.061553 -1.071141 -1.844335 -1.457738 -1.457738 
C -1.844335 -1.071141 -2.061553 -0.54673 -2.061553 0 
C -2.061553 0.54673 -1.844335 1.071141 -1.457738 1.457738 
C -1.071141 1.844335 -0.54673 2.061553 0 2.061553 
z
" style="stroke: #9467bd; stroke-opacity: 0.45"/>
    </defs>
    <g clip-path="url(#pf562d8ea06)">
     <use xlink:href="#m41901bf724" x="342.43102" y="405.040925" style="fill: #9467bd; fill-opacity: 0.45; stroke: #9467bd; stroke-opacity: 0.45"/>
     <use xlink:href="#m41901bf724" x="291.826614" y="405.040925" style="fill: #9467bd; fill-opacity: 0.45; stroke: #9467bd; stroke-opacity: 0.45"/>
     <use xlink:href="#m41901bf724" x="452.0739" y="405.040925" style="fill: #9467bd; fill-opacity: 0.45; stroke: #9467bd; stroke-opacity: 0.45"/>
    </g>
   </g>
   <g id="PathCollection_10">
    <defs>
     <path id="ma44284cce7" d="M 0 2.061553 
C 0.54673 2.061553 1.071141 1.844335 1.457738 1.457738 
C 1.844335 1.071141 2.061553 0.54673 2.061553 0 
C 2.061553 -0.54673 1.844335 -1.071141 1.457738 -1.457738 
C 1.071141 -1.844335 0.54673 -2.061553 0 -2.061553 
C -0.54673 -2.061553 -1.071141 -1.844335 -1.457738 -1.457738 
C -1.844335 -1.071141 -2.061553 -0.54673 -2.061553 0 
C -2.061553 0.54673 -1.844335 1.071141 -1.457738 1.457738 
C -1.071141 1.844335 -0.54673 2.061553 0 2.061553 
z
" style="stroke: #c5b0d5; stroke-opacity: 0.45"/>
    </defs>
    <g clip-path="url(#pf562d8ea06)">
     <use xlink:href="#ma44284cce7" x="527.980509" y="447.477725" style="fill: #c5b0d5; fill-opacity: 0.45; stroke: #c5b0d5; stroke-opacity: 0.45"/>
     <use xlink:href="#ma44284cce7" x="350.865088" y="447.477725" style="fill: #c5b0d5; fill-opacity: 0.45; stroke: #c5b0d5; stroke-opacity: 0.45"/>
     <use xlink:href="#ma44284cce7" x="376.167291" y="447.477725" style="fill: #c5b0d5; fill-opacity: 0.45; stroke: #c5b0d5; stroke-opacity: 0.45"/>
    </g>
   </g>
   <g id="PathCollection_11">
    <defs>
     <path id="m6d43a4a944" d="M 0 2.061553 
C 0.54673 2.061553 1.071141 1.844335 1.457738 1.457738 
C 1.844335 1.071141 2.061553 0.54673 2.061553 0 
C 2.061553 -0.54673 1.844335 -1.071141 1.457738 -1.457738 
C 1.071141 -1.844335 0.54673 -2.061553 0 -2.061553 
C -0.54673 -2.061553 -1.071141 -1.844335 -1.457738 -1.457738 
C -1.844335 -1.071141 -2.061553 -0.54673 -2.061553 0 
C -2.061553 0.54673 -1.844335 1.071141 -1.457738 1.457738 
C -1.071141 1.844335 -0.54673 2.061553 0 2.061553 
z
" style="stroke: #8c564b; stroke-opacity: 0.45"/>
    </defs>
    <g clip-path="url(#pf562d8ea06)">
     <use xlink:href="#m6d43a4a944" x="224.354073" y="489.914525" style="fill: #8c564b; fill-opacity: 0.45; stroke: #8c564b; stroke-opacity: 0.45"/>
     <use xlink:href="#m6d43a4a944" x="215.920005" y="489.914525" style="fill: #8c564b; fill-opacity: 0.45; stroke: #8c564b; stroke-opacity: 0.45"/>
     <use xlink:href="#m6d43a4a944" x="224.354073" y="489.914525" style="fill: #8c564b; fill-opacity: 0.45; stroke: #8c564b; stroke-opacity: 0.45"/>
    </g>
   </g>
   <g id="matplotlib.axis_1">
    <g id="xtick_1">
     <g id="line2d_1">
      <path d="M 207.485938 511.132925 
L 207.485938 44.328125 
" clip-path="url(#pf562d8ea06)" style="fill: none; stroke: #b0b0b0; stroke-opacity: 0.2; stroke-width: 0.8; stroke-linecap: square"/>
     </g>
     <g id="line2d_2">
      <defs>
       <path id="mbf5fbe8e85" d="M 0 0 
L 0 3.5 
" style="stroke: #000000; stroke-width: 0.8"/>
      </defs>
      <g>
       <use xlink:href="#mbf5fbe8e85" x="207.485938" y="511.132925" style="stroke: #000000; stroke-width: 0.8"/>
      </g>
     </g>
     <g id="text_1">
      <text style="font-size: 10px; font-family: 'DejaVu Sans', 'Bitstream Vera Sans', 'Computer Modern Sans Serif', 'Lucida Grande', 'Verdana', 'Geneva', 'Lucid', 'Arial', 'Helvetica', 'Avant Garde', sans-serif; text-anchor: middle" x="207.485938" y="525.730581" transform="rotate(-0 207.485938 525.730581)">0</text>
     </g>
    </g>
    <g id="xtick_2">
     <g id="line2d_3">
      <path d="M 291.826614 511.132925 
L 291.826614 44.328125 
" clip-path="url(#pf562d8ea06)" style="fill: none; stroke: #b0b0b0; stroke-opacity: 0.2; stroke-width: 0.8; stroke-linecap: square"/>
     </g>
     <g id="line2d_4">
      <g>
       <use xlink:href="#mbf5fbe8e85" x="291.826614" y="511.132925" style="stroke: #000000; stroke-width: 0.8"/>
      </g>
     </g>
     <g id="text_2">
      <text style="font-size: 10px; font-family: 'DejaVu Sans', 'Bitstream Vera Sans', 'Computer Modern Sans Serif', 'Lucida Grande', 'Verdana', 'Geneva', 'Lucid', 'Arial', 'Helvetica', 'Avant Garde', sans-serif; text-anchor: middle" x="291.826614" y="525.730581" transform="rotate(-0 291.826614 525.730581)">10</text>
     </g>
    </g>
    <g id="xtick_3">
     <g id="line2d_5">
      <path d="M 376.167291 511.132925 
L 376.167291 44.328125 
" clip-path="url(#pf562d8ea06)" style="fill: none; stroke: #b0b0b0; stroke-opacity: 0.2; stroke-width: 0.8; stroke-linecap: square"/>
     </g>
     <g id="line2d_6">
      <g>
       <use xlink:href="#mbf5fbe8e85" x="376.167291" y="511.132925" style="stroke: #000000; stroke-width: 0.8"/>
      </g>
     </g>
     <g id="text_3">
      <text style="font-size: 10px; font-family: 'DejaVu Sans', 'Bitstream Vera Sans', 'Computer Modern Sans Serif', 'Lucida Grande', 'Verdana', 'Geneva', 'Lucid', 'Arial', 'Helvetica', 'Avant Garde', sans-serif; text-anchor: middle" x="376.167291" y="525.730581" transform="rotate(-0 376.167291 525.730581)">20</text>
     </g>
    </g>
    <g id="xtick_4">
     <g id="line2d_7">
      <path d="M 460.507968 511.132925 
L 460.507968 44.328125 
" clip-path="url(#pf562d8ea06)" style="fill: none; stroke: #b0b0b0; stroke-opacity: 0.2; stroke-width: 0.8; stroke-linecap: square"/>
     </g>
     <g id="line2d_8">
      <g>
       <use xlink:href="#mbf5fbe8e85" x="460.507968" y="511.132925" style="stroke: #000000; stroke-width: 0.8"/>
      </g>
     </g>
     <g id="text_4">
      <text style="font-size: 10px; font-family: 'DejaVu Sans', 'Bitstream Vera Sans', 'Computer Modern Sans Serif', 'Lucida Grande', 'Verdana', 'Geneva', 'Lucid', 'Arial', 'Helvetica', 'Avant Garde', sans-serif; text-anchor: middle" x="460.507968" y="525.730581" transform="rotate(-0 460.507968 525.730581)">30</text>
     </g>
    </g>
    <g id="xtick_5">
     <g id="line2d_9">
      <path d="M 544.848645 511.132925 
L 544.848645 44.328125 
" clip-path="url(#pf562d8ea06)" style="fill: none; stroke: #b0b0b0; stroke-opacity: 0.2; stroke-width: 0.8; stroke-linecap: square"/>
     </g>
     <g id="line2d_10">
      <g>
       <use xlink:href="#mbf5fbe8e85" x="544.848645" y="511.132925" style="stroke: #000000; stroke-width: 0.8"/>
      </g>
     </g>
     <g id="text_5">
      <text style="font-size: 10px; font-family: 'DejaVu Sans', 'Bitstream Vera Sans', 'Computer Modern Sans Serif', 'Lucida Grande', 'Verdana', 'Geneva', 'Lucid', 'Arial', 'Helvetica', 'Avant Garde', sans-serif; text-anchor: middle" x="544.848645" y="525.730581" transform="rotate(-0 544.848645 525.730581)">40</text>
     </g>
    </g>
    <g id="xtick_6">
     <g id="line2d_11">
      <path d="M 629.189321 511.132925 
L 629.189321 44.328125 
" clip-path="url(#pf562d8ea06)" style="fill: none; stroke: #b0b0b0; stroke-opacity: 0.2; stroke-width: 0.8; stroke-linecap: square"/>
     </g>
     <g id="line2d_12">
      <g>
       <use xlink:href="#mbf5fbe8e85" x="629.189321" y="511.132925" style="stroke: #000000; stroke-width: 0.8"/>
      </g>
     </g>
     <g id="text_6">
      <text style="font-size: 10px; font-family: 'DejaVu Sans', 'Bitstream Vera Sans', 'Computer Modern Sans Serif', 'Lucida Grande', 'Verdana', 'Geneva', 'Lucid', 'Arial', 'Helvetica', 'Avant Garde', sans-serif; text-anchor: middle" x="629.189321" y="525.730581" transform="rotate(-0 629.189321 525.730581)">50</text>
     </g>
    </g>
    <g id="xtick_7">
     <g id="line2d_13">
      <path d="M 713.529998 511.132925 
L 713.529998 44.328125 
" clip-path="url(#pf562d8ea06)" style="fill: none; stroke: #b0b0b0; stroke-opacity: 0.2; stroke-width: 0.8; stroke-linecap: square"/>
     </g>
     <g id="line2d_14">
      <g>
       <use xlink:href="#mbf5fbe8e85" x="713.529998" y="511.132925" style="stroke: #000000; stroke-width: 0.8"/>
      </g>
     </g>
     <g id="text_7">
      <text style="font-size: 10px; font-family: 'DejaVu Sans', 'Bitstream Vera Sans', 'Computer Modern Sans Serif', 'Lucida Grande', 'Verdana', 'Geneva', 'Lucid', 'Arial', 'Helvetica', 'Avant Garde', sans-serif; text-anchor: middle" x="713.529998" y="525.730581" transform="rotate(-0 713.529998 525.730581)">60</text>
     </g>
    </g>
    <g id="text_8">
     <text style="font-size: 10px; font-family: 'DejaVu Sans', 'Bitstream Vera Sans', 'Computer Modern Sans Serif', 'Lucida Grande', 'Verdana', 'Geneva', 'Lucid', 'Arial', 'Helvetica', 'Avant Garde', sans-serif; text-anchor: middle" x="486.485938" y="539.731363" transform="rotate(-0 486.485938 539.731363)">Score officiel (pommes)</text>
    </g>
   </g>
   <g id="matplotlib.axis_2">
    <g id="ytick_1">
     <g id="line2d_15">
      <path d="M 179.585938 65.546525 
L 793.385938 65.546525 
" clip-path="url(#pf562d8ea06)" style="fill: none; stroke: #b0b0b0; stroke-opacity: 0.2; stroke-width: 0.8; stroke-linecap: square"/>
     </g>
     <g id="line2d_16">
      <defs>
       <path id="m3ef6000ebc" d="M 0 0 
L -3.5 0 
" style="stroke: #000000; stroke-width: 0.8"/>
      </defs>
      <g>
       <use xlink:href="#m3ef6000ebc" x="179.585938" y="65.546525" style="stroke: #000000; stroke-width: 0.8"/>
      </g>
     </g>
     <g id="text_9">
      <text style="font-size: 10px; font-family: 'DejaVu Sans', 'Bitstream Vera Sans', 'Computer Modern Sans Serif', 'Lucida Grande', 'Verdana', 'Geneva', 'Lucid', 'Arial', 'Helvetica', 'Avant Garde', sans-serif; text-anchor: end" x="172.585938" y="69.345744" transform="rotate(-0 172.585938 69.345744)">validation_ddqn11 · n=3</text>
     </g>
    </g>
    <g id="ytick_2">
     <g id="line2d_17">
      <path d="M 179.585938 107.983325 
L 793.385938 107.983325 
" clip-path="url(#pf562d8ea06)" style="fill: none; stroke: #b0b0b0; stroke-opacity: 0.2; stroke-width: 0.8; stroke-linecap: square"/>
     </g>
     <g id="line2d_18">
      <g>
       <use xlink:href="#m3ef6000ebc" x="179.585938" y="107.983325" style="stroke: #000000; stroke-width: 0.8"/>
      </g>
     </g>
     <g id="text_10">
      <text style="font-size: 10px; font-family: 'DejaVu Sans', 'Bitstream Vera Sans', 'Computer Modern Sans Serif', 'Lucida Grande', 'Verdana', 'Geneva', 'Lucid', 'Arial', 'Helvetica', 'Avant Garde', sans-serif; text-anchor: end" x="172.585938" y="111.782544" transform="rotate(-0 172.585938 111.782544)">validation_greedy · n=3</text>
     </g>
    </g>
    <g id="ytick_3">
     <g id="line2d_19">
      <path d="M 179.585938 150.420125 
L 793.385938 150.420125 
" clip-path="url(#pf562d8ea06)" style="fill: none; stroke: #b0b0b0; stroke-opacity: 0.2; stroke-width: 0.8; stroke-linecap: square"/>
     </g>
     <g id="line2d_20">
      <g>
       <use xlink:href="#m3ef6000ebc" x="179.585938" y="150.420125" style="stroke: #000000; stroke-width: 0.8"/>
      </g>
     </g>
     <g id="text_11">
      <text style="font-size: 10px; font-family: 'DejaVu Sans', 'Bitstream Vera Sans', 'Computer Modern Sans Serif', 'Lucida Grande', 'Verdana', 'Geneva', 'Lucid', 'Arial', 'Helvetica', 'Avant Garde', sans-serif; text-anchor: end" x="172.585938" y="154.219344" transform="rotate(-0 172.585938 154.219344)">validation_n3 · n=3</text>
     </g>
    </g>
    <g id="ytick_4">
     <g id="line2d_21">
      <path d="M 179.585938 192.856925 
L 793.385938 192.856925 
" clip-path="url(#pf562d8ea06)" style="fill: none; stroke: #b0b0b0; stroke-opacity: 0.2; stroke-width: 0.8; stroke-linecap: square"/>
     </g>
     <g id="line2d_22">
      <g>
       <use xlink:href="#m3ef6000ebc" x="179.585938" y="192.856925" style="stroke: #000000; stroke-width: 0.8"/>
      </g>
     </g>
     <g id="text_12">
      <text style="font-size: 10px; font-family: 'DejaVu Sans', 'Bitstream Vera Sans', 'Computer Modern Sans Serif', 'Lucida Grande', 'Verdana', 'Geneva', 'Lucid', 'Arial', 'Helvetica', 'Avant Garde', sans-serif; text-anchor: end" x="172.585938" y="196.656144" transform="rotate(-0 172.585938 196.656144)">validation_ordered1m · n=3</text>
     </g>
    </g>
    <g id="ytick_5">
     <g id="line2d_23">
      <path d="M 179.585938 235.293725 
L 793.385938 235.293725 
" clip-path="url(#pf562d8ea06)" style="fill: none; stroke: #b0b0b0; stroke-opacity: 0.2; stroke-width: 0.8; stroke-linecap: square"/>
     </g>
     <g id="line2d_24">
      <g>
       <use xlink:href="#m3ef6000ebc" x="179.585938" y="235.293725" style="stroke: #000000; stroke-width: 0.8"/>
      </g>
     </g>
     <g id="text_13">
      <text style="font-size: 10px; font-family: 'DejaVu Sans', 'Bitstream Vera Sans', 'Computer Modern Sans Serif', 'Lucida Grande', 'Verdana', 'Geneva', 'Lucid', 'Arial', 'Helvetica', 'Avant Garde', sans-serif; text-anchor: end" x="172.585938" y="239.092944" transform="rotate(-0 172.585938 239.092944)">validation_ordered2m · n=3</text>
     </g>
    </g>
    <g id="ytick_6">
     <g id="line2d_25">
      <path d="M 179.585938 277.730525 
L 793.385938 277.730525 
" clip-path="url(#pf562d8ea06)" style="fill: none; stroke: #b0b0b0; stroke-opacity: 0.2; stroke-width: 0.8; stroke-linecap: square"/>
     </g>
     <g id="line2d_26">
      <g>
       <use xlink:href="#m3ef6000ebc" x="179.585938" y="277.730525" style="stroke: #000000; stroke-width: 0.8"/>
      </g>
     </g>
     <g id="text_14">
      <text style="font-size: 10px; font-family: 'DejaVu Sans', 'Bitstream Vera Sans', 'Computer Modern Sans Serif', 'Lucida Grande', 'Verdana', 'Geneva', 'Lucid', 'Arial', 'Helvetica', 'Avant Garde', sans-serif; text-anchor: end" x="172.585938" y="281.529744" transform="rotate(-0 172.585938 281.529744)">validation_ordered5m · n=3</text>
     </g>
    </g>
    <g id="ytick_7">
     <g id="line2d_27">
      <path d="M 179.585938 320.167325 
L 793.385938 320.167325 
" clip-path="url(#pf562d8ea06)" style="fill: none; stroke: #b0b0b0; stroke-opacity: 0.2; stroke-width: 0.8; stroke-linecap: square"/>
     </g>
     <g id="line2d_28">
      <g>
       <use xlink:href="#m3ef6000ebc" x="179.585938" y="320.167325" style="stroke: #000000; stroke-width: 0.8"/>
      </g>
     </g>
     <g id="text_15">
      <text style="font-size: 10px; font-family: 'DejaVu Sans', 'Bitstream Vera Sans', 'Computer Modern Sans Serif', 'Lucida Grande', 'Verdana', 'Geneva', 'Lucid', 'Arial', 'Helvetica', 'Avant Garde', sans-serif; text-anchor: end" x="172.585938" y="323.966544" transform="rotate(-0 172.585938 323.966544)">validation_ordered_seed23 · n=3</text>
     </g>
    </g>
    <g id="ytick_8">
     <g id="line2d_29">
      <path d="M 179.585938 362.604125 
L 793.385938 362.604125 
" clip-path="url(#pf562d8ea06)" style="fill: none; stroke: #b0b0b0; stroke-opacity: 0.2; stroke-width: 0.8; stroke-linecap: square"/>
     </g>
     <g id="line2d_30">
      <g>
       <use xlink:href="#m3ef6000ebc" x="179.585938" y="362.604125" style="stroke: #000000; stroke-width: 0.8"/>
      </g>
     </g>
     <g id="text_16">
      <text style="font-size: 10px; font-family: 'DejaVu Sans', 'Bitstream Vera Sans', 'Computer Modern Sans Serif', 'Lucida Grande', 'Verdana', 'Geneva', 'Lucid', 'Arial', 'Helvetica', 'Avant Garde', sans-serif; text-anchor: end" x="172.585938" y="366.403344" transform="rotate(-0 172.585938 366.403344)">validation_original · n=3</text>
     </g>
    </g>
    <g id="ytick_9">
     <g id="line2d_31">
      <path d="M 179.585938 405.040925 
L 793.385938 405.040925 
" clip-path="url(#pf562d8ea06)" style="fill: none; stroke: #b0b0b0; stroke-opacity: 0.2; stroke-width: 0.8; stroke-linecap: square"/>
     </g>
     <g id="line2d_32">
      <g>
       <use xlink:href="#m3ef6000ebc" x="179.585938" y="405.040925" style="stroke: #000000; stroke-width: 0.8"/>
      </g>
     </g>
     <g id="text_17">
      <text style="font-size: 10px; font-family: 'DejaVu Sans', 'Bitstream Vera Sans', 'Computer Modern Sans Serif', 'Lucida Grande', 'Verdana', 'Geneva', 'Lucid', 'Arial', 'Helvetica', 'Avant Garde', sans-serif; text-anchor: end" x="172.585938" y="408.840144" transform="rotate(-0 172.585938 408.840144)">validation_per · n=3</text>
     </g>
    </g>
    <g id="ytick_10">
     <g id="line2d_33">
      <path d="M 179.585938 447.477725 
L 793.385938 447.477725 
" clip-path="url(#pf562d8ea06)" style="fill: none; stroke: #b0b0b0; stroke-opacity: 0.2; stroke-width: 0.8; stroke-linecap: square"/>
     </g>
     <g id="line2d_34">
      <g>
       <use xlink:href="#m3ef6000ebc" x="179.585938" y="447.477725" style="stroke: #000000; stroke-width: 0.8"/>
      </g>
     </g>
     <g id="text_18">
      <text style="font-size: 10px; font-family: 'DejaVu Sans', 'Bitstream Vera Sans', 'Computer Modern Sans Serif', 'Lucida Grande', 'Verdana', 'Geneva', 'Lucid', 'Arial', 'Helvetica', 'Avant Garde', sans-serif; text-anchor: end" x="172.585938" y="451.276944" transform="rotate(-0 172.585938 451.276944)">validation_per_n3 · n=3</text>
     </g>
    </g>
    <g id="ytick_11">
     <g id="line2d_35">
      <path d="M 179.585938 489.914525 
L 793.385938 489.914525 
" clip-path="url(#pf562d8ea06)" style="fill: none; stroke: #b0b0b0; stroke-opacity: 0.2; stroke-width: 0.8; stroke-linecap: square"/>
     </g>
     <g id="line2d_36">
      <g>
       <use xlink:href="#m3ef6000ebc" x="179.585938" y="489.914525" style="stroke: #000000; stroke-width: 0.8"/>
      </g>
     </g>
     <g id="text_19">
      <text style="font-size: 10px; font-family: 'DejaVu Sans', 'Bitstream Vera Sans', 'Computer Modern Sans Serif', 'Lucida Grande', 'Verdana', 'Geneva', 'Lucid', 'Arial', 'Helvetica', 'Avant Garde', sans-serif; text-anchor: end" x="172.585938" y="493.713744" transform="rotate(-0 172.585938 493.713744)">validation_random · n=3</text>
     </g>
    </g>
   </g>
   <g id="LineCollection_1">
    <path d="M 459.908577 65.546525 
L 579.184306 65.546525 
" clip-path="url(#pf562d8ea06)" style="fill: none; stroke: #1f77b4; stroke-width: 1.5"/>
   </g>
   <g id="line2d_37">
    <defs>
     <path id="md711c244e7" d="M 0 4 
L 0 -4 
" style="stroke: #1f77b4"/>
    </defs>
    <g clip-path="url(#pf562d8ea06)">
     <use xlink:href="#md711c244e7" x="459.908577" y="65.546525" style="fill: #1f77b4; stroke: #1f77b4"/>
    </g>
   </g>
   <g id="line2d_38">
    <g clip-path="url(#pf562d8ea06)">
     <use xlink:href="#md711c244e7" x="579.184306" y="65.546525" style="fill: #1f77b4; stroke: #1f77b4"/>
    </g>
   </g>
   <g id="LineCollection_2">
    <path d="M 309.097057 107.983325 
L 544.446337 107.983325 
" clip-path="url(#pf562d8ea06)" style="fill: none; stroke: #aec7e8; stroke-width: 1.5"/>
   </g>
   <g id="line2d_39">
    <defs>
     <path id="m8c21f8f890" d="M 0 4 
L 0 -4 
" style="stroke: #aec7e8"/>
    </defs>
    <g clip-path="url(#pf562d8ea06)">
     <use xlink:href="#m8c21f8f890" x="309.097057" y="107.983325" style="fill: #aec7e8; stroke: #aec7e8"/>
    </g>
   </g>
   <g id="line2d_40">
    <g clip-path="url(#pf562d8ea06)">
     <use xlink:href="#m8c21f8f890" x="544.446337" y="107.983325" style="fill: #aec7e8; stroke: #aec7e8"/>
    </g>
   </g>
   <g id="LineCollection_3">
    <path d="M 352.181365 150.420125 
L 506.984741 150.420125 
" clip-path="url(#pf562d8ea06)" style="fill: none; stroke: #ff7f0e; stroke-width: 1.5"/>
   </g>
   <g id="line2d_41">
    <defs>
     <path id="m6a00d3cf31" d="M 0 4 
L 0 -4 
" style="stroke: #ff7f0e"/>
    </defs>
    <g clip-path="url(#pf562d8ea06)">
     <use xlink:href="#m6a00d3cf31" x="352.181365" y="150.420125" style="fill: #ff7f0e; stroke: #ff7f0e"/>
    </g>
   </g>
   <g id="line2d_42">
    <g clip-path="url(#pf562d8ea06)">
     <use xlink:href="#m6a00d3cf31" x="506.984741" y="150.420125" style="fill: #ff7f0e; stroke: #ff7f0e"/>
    </g>
   </g>
   <g id="LineCollection_4">
    <path d="M 588.438443 192.856925 
L 731.790029 192.856925 
" clip-path="url(#pf562d8ea06)" style="fill: none; stroke: #ffbb78; stroke-width: 1.5"/>
   </g>
   <g id="line2d_43">
    <defs>
     <path id="m3c6418bece" d="M 0 4 
L 0 -4 
" style="stroke: #ffbb78"/>
    </defs>
    <g clip-path="url(#pf562d8ea06)">
     <use xlink:href="#m3c6418bece" x="588.438443" y="192.856925" style="fill: #ffbb78; stroke: #ffbb78"/>
    </g>
   </g>
   <g id="line2d_44">
    <g clip-path="url(#pf562d8ea06)">
     <use xlink:href="#m3c6418bece" x="731.790029" y="192.856925" style="fill: #ffbb78; stroke: #ffbb78"/>
    </g>
   </g>
   <g id="LineCollection_5">
    <path d="M 531.334525 235.293725 
L 676.439712 235.293725 
" clip-path="url(#pf562d8ea06)" style="fill: none; stroke: #2ca02c; stroke-width: 1.5"/>
   </g>
   <g id="line2d_45">
    <defs>
     <path id="m3b16cf89de" d="M 0 4 
L 0 -4 
" style="stroke: #2ca02c"/>
    </defs>
    <g clip-path="url(#pf562d8ea06)">
     <use xlink:href="#m3b16cf89de" x="531.334525" y="235.293725" style="fill: #2ca02c; stroke: #2ca02c"/>
    </g>
   </g>
   <g id="line2d_46">
    <g clip-path="url(#pf562d8ea06)">
     <use xlink:href="#m3b16cf89de" x="676.439712" y="235.293725" style="fill: #2ca02c; stroke: #2ca02c"/>
    </g>
   </g>
   <g id="LineCollection_6">
    <path d="M 495.549584 277.730525 
L 633.506688 277.730525 
" clip-path="url(#pf562d8ea06)" style="fill: none; stroke: #98df8a; stroke-width: 1.5"/>
   </g>
   <g id="line2d_47">
    <defs>
     <path id="mabb68a74c8" d="M 0 4 
L 0 -4 
" style="stroke: #98df8a"/>
    </defs>
    <g clip-path="url(#pf562d8ea06)">
     <use xlink:href="#mabb68a74c8" x="495.549584" y="277.730525" style="fill: #98df8a; stroke: #98df8a"/>
    </g>
   </g>
   <g id="line2d_48">
    <g clip-path="url(#pf562d8ea06)">
     <use xlink:href="#mabb68a74c8" x="633.506688" y="277.730525" style="fill: #98df8a; stroke: #98df8a"/>
    </g>
   </g>
   <g id="LineCollection_7">
    <path d="M 729.0466 320.167325 
L 765.485938 320.167325 
" clip-path="url(#pf562d8ea06)" style="fill: none; stroke: #d62728; stroke-width: 1.5"/>
   </g>
   <g id="line2d_49">
    <defs>
     <path id="m18831bfdbe" d="M 0 4 
L 0 -4 
" style="stroke: #d62728"/>
    </defs>
    <g clip-path="url(#pf562d8ea06)">
     <use xlink:href="#m18831bfdbe" x="729.0466" y="320.167325" style="fill: #d62728; stroke: #d62728"/>
    </g>
   </g>
   <g id="line2d_50">
    <g clip-path="url(#pf562d8ea06)">
     <use xlink:href="#m18831bfdbe" x="765.485938" y="320.167325" style="fill: #d62728; stroke: #d62728"/>
    </g>
   </g>
   <g id="LineCollection_8">
    <path d="M 207.485938 362.604125 
L 207.485938 362.604125 
" clip-path="url(#pf562d8ea06)" style="fill: none; stroke: #ff9896; stroke-width: 1.5"/>
   </g>
   <g id="line2d_51">
    <defs>
     <path id="m913f05debd" d="M 0 4 
L 0 -4 
" style="stroke: #ff9896"/>
    </defs>
    <g clip-path="url(#pf562d8ea06)">
     <use xlink:href="#m913f05debd" x="207.485938" y="362.604125" style="fill: #ff9896; stroke: #ff9896"/>
    </g>
   </g>
   <g id="line2d_52">
    <g clip-path="url(#pf562d8ea06)">
     <use xlink:href="#m913f05debd" x="207.485938" y="362.604125" style="fill: #ff9896; stroke: #ff9896"/>
    </g>
   </g>
   <g id="LineCollection_9">
    <path d="M 295.226234 405.040925 
L 428.994789 405.040925 
" clip-path="url(#pf562d8ea06)" style="fill: none; stroke: #9467bd; stroke-width: 1.5"/>
   </g>
   <g id="line2d_53">
    <defs>
     <path id="mce4f8eef8b" d="M 0 4 
L 0 -4 
" style="stroke: #9467bd"/>
    </defs>
    <g clip-path="url(#pf562d8ea06)">
     <use xlink:href="#mce4f8eef8b" x="295.226234" y="405.040925" style="fill: #9467bd; stroke: #9467bd"/>
    </g>
   </g>
   <g id="line2d_54">
    <g clip-path="url(#pf562d8ea06)">
     <use xlink:href="#mce4f8eef8b" x="428.994789" y="405.040925" style="fill: #9467bd; stroke: #9467bd"/>
    </g>
   </g>
   <g id="LineCollection_10">
    <path d="M 340.123303 447.477725 
L 496.551955 447.477725 
" clip-path="url(#pf562d8ea06)" style="fill: none; stroke: #c5b0d5; stroke-width: 1.5"/>
   </g>
   <g id="line2d_55">
    <defs>
     <path id="m4541e4c344" d="M 0 4 
L 0 -4 
" style="stroke: #c5b0d5"/>
    </defs>
    <g clip-path="url(#pf562d8ea06)">
     <use xlink:href="#m4541e4c344" x="340.123303" y="447.477725" style="fill: #c5b0d5; stroke: #c5b0d5"/>
    </g>
   </g>
   <g id="line2d_56">
    <g clip-path="url(#pf562d8ea06)">
     <use xlink:href="#m4541e4c344" x="496.551955" y="447.477725" style="fill: #c5b0d5; stroke: #c5b0d5"/>
    </g>
   </g>
   <g id="LineCollection_11">
    <path d="M 217.566859 489.914525 
L 225.518575 489.914525 
" clip-path="url(#pf562d8ea06)" style="fill: none; stroke: #8c564b; stroke-width: 1.5"/>
   </g>
   <g id="line2d_57">
    <defs>
     <path id="mfbe7c89ec1" d="M 0 4 
L 0 -4 
" style="stroke: #8c564b"/>
    </defs>
    <g clip-path="url(#pf562d8ea06)">
     <use xlink:href="#mfbe7c89ec1" x="217.566859" y="489.914525" style="fill: #8c564b; stroke: #8c564b"/>
    </g>
   </g>
   <g id="line2d_58">
    <g clip-path="url(#pf562d8ea06)">
     <use xlink:href="#mfbe7c89ec1" x="225.518575" y="489.914525" style="fill: #8c564b; stroke: #8c564b"/>
    </g>
   </g>
   <g id="line2d_59">
    <defs>
     <path id="m344c95f72f" d="M 0 3 
C 0.795609 3 1.55874 2.683901 2.12132 2.12132 
C 2.683901 1.55874 3 0.795609 3 0 
C 3 -0.795609 2.683901 -1.55874 2.12132 -2.12132 
C 1.55874 -2.683901 0.795609 -3 0 -3 
C -0.795609 -3 -1.55874 -2.683901 -2.12132 -2.12132 
C -2.683901 -1.55874 -3 -0.795609 -3 0 
C -3 0.795609 -2.683901 1.55874 -2.12132 2.12132 
C -1.55874 2.683901 -0.795609 3 0 3 
z
" style="stroke: #1f77b4"/>
    </defs>
    <g clip-path="url(#pf562d8ea06)">
     <use xlink:href="#m344c95f72f" x="519.546442" y="65.546525" style="fill: #1f77b4; stroke: #1f77b4"/>
    </g>
   </g>
   <g id="line2d_60">
    <defs>
     <path id="maa4c70093b" d="M 0 3 
C 0.795609 3 1.55874 2.683901 2.12132 2.12132 
C 2.683901 1.55874 3 0.795609 3 0 
C 3 -0.795609 2.683901 -1.55874 2.12132 -2.12132 
C 1.55874 -2.683901 0.795609 -3 0 -3 
C -0.795609 -3 -1.55874 -2.683901 -2.12132 -2.12132 
C -2.683901 -1.55874 -3 -0.795609 -3 0 
C -3 0.795609 -2.683901 1.55874 -2.12132 2.12132 
C -1.55874 2.683901 -0.795609 3 0 3 
z
" style="stroke: #aec7e8"/>
    </defs>
    <g clip-path="url(#pf562d8ea06)">
     <use xlink:href="#maa4c70093b" x="426.771697" y="107.983325" style="fill: #aec7e8; stroke: #aec7e8"/>
    </g>
   </g>
   <g id="line2d_61">
    <defs>
     <path id="m1ce9b5491a" d="M 0 3 
C 0.795609 3 1.55874 2.683901 2.12132 2.12132 
C 2.683901 1.55874 3 0.795609 3 0 
C 3 -0.795609 2.683901 -1.55874 2.12132 -2.12132 
C 1.55874 -2.683901 0.795609 -3 0 -3 
C -0.795609 -3 -1.55874 -2.683901 -2.12132 -2.12132 
C -2.683901 -1.55874 -3 -0.795609 -3 0 
C -3 0.795609 -2.683901 1.55874 -2.12132 2.12132 
C -1.55874 2.683901 -0.795609 3 0 3 
z
" style="stroke: #ff7f0e"/>
    </defs>
    <g clip-path="url(#pf562d8ea06)">
     <use xlink:href="#m1ce9b5491a" x="429.583053" y="150.420125" style="fill: #ff7f0e; stroke: #ff7f0e"/>
    </g>
   </g>
   <g id="line2d_62">
    <defs>
     <path id="m6539269321" d="M 0 3 
C 0.795609 3 1.55874 2.683901 2.12132 2.12132 
C 2.683901 1.55874 3 0.795609 3 0 
C 3 -0.795609 2.683901 -1.55874 2.12132 -2.12132 
C 1.55874 -2.683901 0.795609 -3 0 -3 
C -0.795609 -3 -1.55874 -2.683901 -2.12132 -2.12132 
C -2.683901 -1.55874 -3 -0.795609 -3 0 
C -3 0.795609 -2.683901 1.55874 -2.12132 2.12132 
C -1.55874 2.683901 -0.795609 3 0 3 
z
" style="stroke: #ffbb78"/>
    </defs>
    <g clip-path="url(#pf562d8ea06)">
     <use xlink:href="#m6539269321" x="660.114236" y="192.856925" style="fill: #ffbb78; stroke: #ffbb78"/>
    </g>
   </g>
   <g id="line2d_63">
    <defs>
     <path id="me4687bff30" d="M 0 3 
C 0.795609 3 1.55874 2.683901 2.12132 2.12132 
C 2.683901 1.55874 3 0.795609 3 0 
C 3 -0.795609 2.683901 -1.55874 2.12132 -2.12132 
C 1.55874 -2.683901 0.795609 -3 0 -3 
C -0.795609 -3 -1.55874 -2.683901 -2.12132 -2.12132 
C -2.683901 -1.55874 -3 -0.795609 -3 0 
C -3 0.795609 -2.683901 1.55874 -2.12132 2.12132 
C -1.55874 2.683901 -0.795609 3 0 3 
z
" style="stroke: #2ca02c"/>
    </defs>
    <g clip-path="url(#pf562d8ea06)">
     <use xlink:href="#me4687bff30" x="603.887118" y="235.293725" style="fill: #2ca02c; stroke: #2ca02c"/>
    </g>
   </g>
   <g id="line2d_64">
    <defs>
     <path id="ma0ccf79400" d="M 0 3 
C 0.795609 3 1.55874 2.683901 2.12132 2.12132 
C 2.683901 1.55874 3 0.795609 3 0 
C 3 -0.795609 2.683901 -1.55874 2.12132 -2.12132 
C 1.55874 -2.683901 0.795609 -3 0 -3 
C -0.795609 -3 -1.55874 -2.683901 -2.12132 -2.12132 
C -2.683901 -1.55874 -3 -0.795609 -3 0 
C -3 0.795609 -2.683901 1.55874 -2.12132 2.12132 
C -1.55874 2.683901 -0.795609 3 0 3 
z
" style="stroke: #98df8a"/>
    </defs>
    <g clip-path="url(#pf562d8ea06)">
     <use xlink:href="#ma0ccf79400" x="564.528136" y="277.730525" style="fill: #98df8a; stroke: #98df8a"/>
    </g>
   </g>
   <g id="line2d_65">
    <defs>
     <path id="m6312ac8b4c" d="M 0 3 
C 0.795609 3 1.55874 2.683901 2.12132 2.12132 
C 2.683901 1.55874 3 0.795609 3 0 
C 3 -0.795609 2.683901 -1.55874 2.12132 -2.12132 
C 1.55874 -2.683901 0.795609 -3 0 -3 
C -0.795609 -3 -1.55874 -2.683901 -2.12132 -2.12132 
C -2.683901 -1.55874 -3 -0.795609 -3 0 
C -3 0.795609 -2.683901 1.55874 -2.12132 2.12132 
C -1.55874 2.683901 -0.795609 3 0 3 
z
" style="stroke: #d62728"/>
    </defs>
    <g clip-path="url(#pf562d8ea06)">
     <use xlink:href="#m6312ac8b4c" x="747.266269" y="320.167325" style="fill: #d62728; stroke: #d62728"/>
    </g>
   </g>
   <g id="line2d_66">
    <defs>
     <path id="mff447914e6" d="M 0 3 
C 0.795609 3 1.55874 2.683901 2.12132 2.12132 
C 2.683901 1.55874 3 0.795609 3 0 
C 3 -0.795609 2.683901 -1.55874 2.12132 -2.12132 
C 1.55874 -2.683901 0.795609 -3 0 -3 
C -0.795609 -3 -1.55874 -2.683901 -2.12132 -2.12132 
C -2.683901 -1.55874 -3 -0.795609 -3 0 
C -3 0.795609 -2.683901 1.55874 -2.12132 2.12132 
C -1.55874 2.683901 -0.795609 3 0 3 
z
" style="stroke: #ff9896"/>
    </defs>
    <g clip-path="url(#pf562d8ea06)">
     <use xlink:href="#mff447914e6" x="207.485938" y="362.604125" style="fill: #ff9896; stroke: #ff9896"/>
    </g>
   </g>
   <g id="line2d_67">
    <defs>
     <path id="m4ba7d50d1e" d="M 0 3 
C 0.795609 3 1.55874 2.683901 2.12132 2.12132 
C 2.683901 1.55874 3 0.795609 3 0 
C 3 -0.795609 2.683901 -1.55874 2.12132 -2.12132 
C 1.55874 -2.683901 0.795609 -3 0 -3 
C -0.795609 -3 -1.55874 -2.683901 -2.12132 -2.12132 
C -2.683901 -1.55874 -3 -0.795609 -3 0 
C -3 0.795609 -2.683901 1.55874 -2.12132 2.12132 
C -1.55874 2.683901 -0.795609 3 0 3 
z
" style="stroke: #9467bd"/>
    </defs>
    <g clip-path="url(#pf562d8ea06)">
     <use xlink:href="#m4ba7d50d1e" x="362.110512" y="405.040925" style="fill: #9467bd; stroke: #9467bd"/>
    </g>
   </g>
   <g id="line2d_68">
    <defs>
     <path id="m53c1fd593c" d="M 0 3 
C 0.795609 3 1.55874 2.683901 2.12132 2.12132 
C 2.683901 1.55874 3 0.795609 3 0 
C 3 -0.795609 2.683901 -1.55874 2.12132 -2.12132 
C 1.55874 -2.683901 0.795609 -3 0 -3 
C -0.795609 -3 -1.55874 -2.683901 -2.12132 -2.12132 
C -2.683901 -1.55874 -3 -0.795609 -3 0 
C -3 0.795609 -2.683901 1.55874 -2.12132 2.12132 
C -1.55874 2.683901 -0.795609 3 0 3 
z
" style="stroke: #c5b0d5"/>
    </defs>
    <g clip-path="url(#pf562d8ea06)">
     <use xlink:href="#m53c1fd593c" x="418.337629" y="447.477725" style="fill: #c5b0d5; stroke: #c5b0d5"/>
    </g>
   </g>
   <g id="line2d_69">
    <defs>
     <path id="mcaab317c21" d="M 0 3 
C 0.795609 3 1.55874 2.683901 2.12132 2.12132 
C 2.683901 1.55874 3 0.795609 3 0 
C 3 -0.795609 2.683901 -1.55874 2.12132 -2.12132 
C 1.55874 -2.683901 0.795609 -3 0 -3 
C -0.795609 -3 -1.55874 -2.683901 -2.12132 -2.12132 
C -2.683901 -1.55874 -3 -0.795609 -3 0 
C -3 0.795609 -2.683901 1.55874 -2.12132 2.12132 
C -1.55874 2.683901 -0.795609 3 0 3 
z
" style="stroke: #8c564b"/>
    </defs>
    <g clip-path="url(#pf562d8ea06)">
     <use xlink:href="#mcaab317c21" x="221.542717" y="489.914525" style="fill: #8c564b; stroke: #8c564b"/>
    </g>
   </g>
   <g id="patch_3">
    <path d="M 179.585938 511.132925 
L 179.585938 44.328125 
" style="fill: none; stroke: #000000; stroke-width: 0.8; stroke-linejoin: miter; stroke-linecap: square"/>
   </g>
   <g id="patch_4">
    <path d="M 179.585938 511.132925 
L 793.385938 511.132925 
" style="fill: none; stroke: #000000; stroke-width: 0.8; stroke-linejoin: miter; stroke-linecap: square"/>
   </g>
   <g id="text_20">
    <text style="font-size: 9px; font-family: 'DejaVu Sans', 'Bitstream Vera Sans', 'Computer Modern Sans Serif', 'Lucida Grande', 'Verdana', 'Geneva', 'Lucid', 'Arial', 'Helvetica', 'Avant Garde', sans-serif; text-anchor: start; fill: #5b6470" x="179.585938" y="32.658005" transform="rotate(-0 179.585938 32.658005)">Point : moyenne ; barre : écart-type population (pas un intervalle de confiance).</text>
   </g>
   <g id="text_21">
    <text style="font-weight: 700; font-size: 12px; font-family: 'DejaVu Sans', 'Bitstream Vera Sans', 'Computer Modern Sans Serif', 'Lucida Grande', 'Verdana', 'Geneva', 'Lucid', 'Arial', 'Helvetica', 'Avant Garde', sans-serif; text-anchor: start" x="179.585938" y="18.328125" transform="rotate(-0 179.585938 18.328125)">Évaluations à 5 Hz · scores actuellement observés</text>
   </g>
  </g>
  <g id="text_22">
   <text style="font-size: 8px; font-family: 'DejaVu Sans', 'Bitstream Vera Sans', 'Computer Modern Sans Serif', 'Lucida Grande', 'Verdana', 'Geneva', 'Lucid', 'Arial', 'Helvetica', 'Avant Garde', sans-serif; fill: #5b6470" transform="translate(96.425938 604.271538)">Instantané, pas un classement : n, graines et budgets peuvent différer.</text>
   <text style="font-size: 8px; font-family: 'DejaVu Sans', 'Bitstream Vera Sans', 'Computer Modern Sans Serif', 'Lucida Grande', 'Verdana', 'Geneva', 'Lucid', 'Arial', 'Helvetica', 'Avant Garde', sans-serif; fill: #5b6470" transform="translate(96.425938 614.193725)">Les scores aux interruptions externes sont inclus ; leur admissibilité officielle reste inconnue.</text>
  </g>
 </g>
 <defs>
  <clipPath id="pf562d8ea06">
   <rect x="179.585938" y="44.328125" width="613.8" height="466.8048"/>
  </clipPath>
 </defs>
</svg>
